<svg xmlns="http://www.w3.org/2000/svg" viewBox="0 0 128 128" role="img" aria-label="Quanyu Dental Favicon">
  <defs>
    <linearGradient id="g" x1="0" y1="0" x2="1" y2="1">
      <stop offset="0%" stop-color="#0d6efd"/>
      <stop offset="100%" stop-color="#00b5d8"/>
    </linearGradient>
  </defs>
  <rect width="128" height="128" rx="24" fill="url(#g)"/>
  <path d="M64 18c-16 0-30 8-37 21-6 11-6 24 1 34 5 8 10 17 12 31 1 6 6 10 12 10 5 0 10-4 11-10l1-10 1 10c1 6 6 10 11 10 6 0 11-4 12-10 2-14 7-23 12-31 7-10 7-23 1-34-7-13-21-21-37-21z" fill="#fff"/>
  <text x="64" y="74" text-anchor="middle" font-size="30" font-weight="700" fill="#0b3d91" font-family="Arial, Helvetica, sans-serif">Q</text>
</svg>
